<svg xmlns="http://www.w3.org/2000/svg" width="100" height="100" viewBox="0 0 100 100">
  <defs>
    <linearGradient id="grad1" x1="0%" y1="0%" x2="100%" y2="100%">
      <stop offset="0%" style="stop-color:#2196F3; stop-opacity:1" />
      <stop offset="100%" style="stop-color:#4CAF50; stop-opacity:1" />
    </linearGradient>
  </defs>
  <rect width="100%" height="100%" fill="white" />
  <circle cx="30" cy="50" r="25" fill="url(#grad1)" />
  <text x="45" y="43" font-family="Arial" font-size="10" fill="#333">
    GHTTP
  </text>
  <path d="M 10 50 A 20 20 0 0 1 50 50 A 20 20 0 0 1 10 50 Z" fill="#fff" transform="translate(-5,0)" />
  <path d="M 45 50 A 10 10 0 0 1 55 50 A 10 10 0 0 1 45 50 Z" fill="#fff" transform="translate(-5,0)" />
  <path d="M 50 50 L 75 50 M 45 55 L 75 55 M 45 45 L 75 45" stroke="#2196F3" stroke-width="2" stroke-linecap="round" />
</svg>